<svg xmlns="http://www.w3.org/2000/svg" viewBox="0 0 100 100" fill="none" role="img" aria-label="Peptídeo é Vida!">
  <defs>
    <linearGradient id="grad1" x1="0%" y1="0%" x2="100%" y2="100%">
      <stop offset="0%" style="stop-color:#00B8D9;stop-opacity:1" />
      <stop offset="100%" style="stop-color:#0066FF;stop-opacity:1" />
    </linearGradient>
    <linearGradient id="grad2" x1="100%" y1="0%" x2="0%" y2="100%">
      <stop offset="0%" style="stop-color:#0066FF;stop-opacity:1" />
      <stop offset="100%" style="stop-color:#0047B3;stop-opacity:1" />
    </linearGradient>
  </defs>
  <line x1="30" y1="50" x2="50" y2="25" stroke="url(#grad1)" stroke-width="4" />
  <line x1="50" y1="25" x2="70" y2="50" stroke="url(#grad2)" stroke-width="4" />
  <line x1="70" y1="50" x2="50" y2="75" stroke="url(#grad1)" stroke-width="4" />
  <line x1="50" y1="75" x2="30" y2="50" stroke="url(#grad2)" stroke-width="4" />
  <line x1="30" y1="50" x2="15" y2="65" stroke="url(#grad1)" stroke-width="4" />
  <line x1="70" y1="50" x2="85" y2="35" stroke="url(#grad2)" stroke-width="4" />
  <line x1="50" y1="25" x2="50" y2="10" stroke="url(#grad1)" stroke-width="4" />
  <line x1="50" y1="75" x2="50" y2="90" stroke="url(#grad2)" stroke-width="4" />
  <line x1="15" y1="65" x2="10" y2="85" stroke="url(#grad1)" stroke-width="4" />
  <line x1="85" y1="35" x2="95" y2="20" stroke="url(#grad2)" stroke-width="4" />
  <line x1="50" y1="75" x2="75" y2="85" stroke="url(#grad1)" stroke-width="4" />
  <circle cx="50" cy="25" r="8" fill="url(#grad1)" />
  <circle cx="70" cy="50" r="9" fill="url(#grad2)" />
  <circle cx="50" cy="75" r="10" fill="url(#grad1)" />
  <circle cx="30" cy="50" r="7" fill="url(#grad2)" />
  <circle cx="15" cy="65" r="5" fill="url(#grad1)" />
  <circle cx="85" cy="35" r="6" fill="url(#grad2)" />
  <circle cx="50" cy="10" r="4" fill="url(#grad1)" />
  <circle cx="50" cy="90" r="5" fill="url(#grad2)" />
  <circle cx="10" cy="85" r="3" fill="url(#grad1)" />
  <circle cx="95" cy="20" r="4" fill="url(#grad2)" />
  <circle cx="75" cy="85" r="4" fill="url(#grad1)" />
</svg>
